<svg width="512" height="512" viewBox="0 0 512 512" fill="none" xmlns="http://www.w3.org/2000/svg">
<path d="M233.76 165.144C234.093 165.096 234.526 165.094 234.868 165.092L281.438 165.095L296.51 165.095L301.258 165.095C303.197 165.095 304.674 164.707 305.821 166.601C306.432 167.61 307.154 168.685 307.791 169.687L312.773 177.521L322.295 192.497C323.87 194.973 325.447 197.419 327.016 199.926C327.975 201.46 327.353 203.396 325.483 203.741C324.933 203.842 324.071 203.823 323.5 203.806C320.891 203.727 318.16 203.924 315.563 203.763C315.472 205.138 315.537 207.298 315.537 208.718L315.538 218.073L315.538 246.988L315.541 255.239C315.541 256.683 315.536 258.11 315.514 259.553C315.479 261.882 312.185 262.561 310.689 261.281C310.196 260.864 309.891 260.265 309.842 259.617C309.773 258.654 310.181 258.096 310.765 257.438C310.714 255.972 310.75 254.318 310.75 252.833L310.751 244.65L310.752 217.803C310.752 213.229 310.854 208.302 310.732 203.768C308.96 203.843 306.961 203.799 305.163 203.799L293.907 203.797C291.949 203.797 289.741 203.747 287.812 203.816C288.096 204.368 288.649 205.183 288.992 205.724L291.13 209.083L297.963 219.812C298.94 221.347 299.956 222.877 300.854 224.451C301.476 225.315 301.066 226.91 300.207 227.499C299.112 228.25 296.291 227.987 294.984 227.993C293.097 228.001 291.072 228.056 289.233 227.952C289.118 229.235 289.525 230.328 288.638 231.394C288.213 231.907 287.597 232.22 286.936 232.259C286.289 232.303 285.653 232.072 285.182 231.621C284.178 230.644 284.436 229.301 284.405 227.956C282.583 228.056 280.155 227.986 278.27 227.986L266.904 227.987L232.251 227.986L209.922 227.987L202.606 227.986C201.214 227.986 199.651 228.021 198.271 227.954C198.203 229.298 198.253 231.042 198.253 232.431L198.251 240.739L198.25 266.115L198.252 277.223C198.252 278.378 198.237 279.805 198.278 280.984C198.291 281.342 199.081 281.203 199.505 281.203L239.638 281.205L252.763 281.208C254.999 281.207 257.237 281.181 259.472 281.21C260.799 281.227 261.894 281.911 262.065 283.324C262.148 283.99 261.955 284.66 261.531 285.177C260.543 286.391 258.264 286.049 256.788 286.047L251.07 286.04L232.958 286.04L208.371 286.043L200.36 286.044C198.942 286.044 197.492 286.058 196.081 286.03C195.531 286.018 194.709 285.886 194.323 285.497C193.889 285.06 193.507 284.498 193.485 283.861C193.431 282.302 193.464 280.637 193.464 279.077L193.464 268.465L193.465 241.851C193.465 237.361 193.563 232.414 193.446 227.959C192.232 228.038 186.136 228.146 185.332 227.774C184.676 227.472 184.238 226.94 184.019 226.257C183.801 225.576 183.94 224.901 184.277 224.284C185.111 222.755 186.17 221.284 187.108 219.811L192.888 210.724L201.158 197.723C202.604 195.449 204.002 193.116 205.515 190.89C205.79 190.485 206.194 189.864 206.618 189.618C208.242 188.676 216.894 189.836 217.621 188.992C218.097 188.441 218.474 187.719 218.862 187.102L221.101 183.563L229.305 170.676C230.304 169.099 231.423 167.18 232.577 165.733C232.809 165.442 233.399 165.248 233.76 165.144ZM275.934 223.15L288.026 223.153C289.707 223.153 292.581 223.245 294.19 223.118C294.252 222.715 292.644 220.439 292.35 219.977L288.582 214.02C284.394 207.451 280.025 200.732 275.926 194.125L231.224 194.123C223.904 194.123 216.461 194.195 209.149 194.117L196.32 214.272L192.341 220.541C192.142 220.855 190.836 222.819 190.819 222.994C190.975 223.169 191.041 223.153 191.363 223.157C192.407 223.167 193.466 223.159 194.51 223.156L200.388 223.148L218.979 223.151L275.934 223.15ZM298.898 198.958C300.921 198.959 320.072 199.077 320.523 198.896L320.564 198.74C319.811 197.444 318.806 195.949 317.992 194.672L313.403 187.46C309.717 181.665 306.001 175.666 302.244 169.934L235.491 169.926C231.655 175.781 227.992 181.781 224.187 187.66C224.018 187.921 223.318 188.96 223.357 189.192C223.98 189.47 247.756 189.196 250.72 189.289C250.864 189.161 250.921 189.09 250.921 188.845C250.924 187.117 250.892 185.386 250.895 183.659C250.897 182.986 250.834 182.187 250.993 181.536C251.537 179.309 253.522 179.597 255.246 179.61L258.505 179.608L264.377 179.602C265.439 179.602 266.516 179.591 267.578 179.618C268.319 179.638 268.985 179.905 269.479 180.489C269.74 180.796 269.917 181.167 269.993 181.564C270.111 182.154 270.074 183.316 270.071 183.95L270.048 187.685C270.044 188.178 269.878 189.252 270.521 189.288C272.948 189.422 275.785 189.015 278.146 189.487C278.926 189.643 280.159 191.816 280.614 192.533L283.189 196.608C283.527 197.146 284.444 198.92 285.074 198.941C286.579 198.989 288.116 198.963 289.624 198.96L298.898 198.958ZM265.226 189.307C265.318 188.773 265.299 185.028 265.248 184.414C263.857 184.489 262.224 184.449 260.818 184.45C259.161 184.451 257.383 184.482 255.736 184.417C255.677 185.124 255.6 188.715 255.837 189.214C256.556 189.349 257.821 189.263 258.601 189.286C260.723 189.351 263.127 189.192 265.226 189.307Z" fill="#BAAB9A"/>
<path d="M279.97 234.155C283.588 233.89 287.828 234.798 291.149 236.235C297.766 239.114 302.989 244.519 305.678 251.273C307.439 255.727 307.92 260.593 307.064 265.31C306.919 266.13 306.616 267.574 306.3 268.316C307.705 269.724 310.014 271.647 311.563 273.025L321.65 282.021L324.812 284.836C326.608 286.433 328.296 287.647 328.093 290.353C327.926 292.585 326.319 293.778 324.846 295.269L320.812 299.35L315.846 304.366C314.01 306.219 312.36 308.556 309.517 308.25C307.277 308.009 306.2 306.4 304.827 304.827L301.29 300.77L294.538 293.039C293.218 291.531 291.802 289.968 290.533 288.428C289.899 287.784 289.225 286.931 288.579 286.24C286.671 286.932 283.689 287.383 281.62 287.427C274.768 287.584 268.152 284.819 263.199 280.101C257.32 274.502 254.047 266.454 254.856 258.282C255.034 256.481 255.951 251.5 257.201 250.241C257.648 249.782 258.265 249.534 258.902 249.556C260.239 249.592 261.301 251.001 262.206 251.917L265.294 255.042L276.038 265.911C278.8 263.185 281.488 260.366 284.239 257.627C284.894 256.975 285.574 256.3 286.196 255.618C285.059 254.548 283.809 253.226 282.699 252.104L276.283 245.615L272.659 241.964C271.797 241.098 270.22 239.82 270.033 238.607C269.959 238.12 270.13 237.086 270.526 236.768C272.805 234.942 277.191 234.329 279.97 234.155ZM259.925 256.525C259.875 257.271 259.742 257.946 259.66 258.678C258.998 264.579 260.944 270.372 264.806 274.838C268.672 279.384 274.184 282.168 280.102 282.564C282.138 282.692 284.296 282.421 286.277 281.939C288.258 281.458 289.676 280.159 291.396 282.113C291.699 282.462 292 282.814 292.297 283.169C294.682 285.866 297.052 288.576 299.407 291.3L310.002 303.438L323.326 289.996C318.374 285.468 313.231 280.971 308.216 276.499L304.185 272.904C303.336 272.152 302.433 271.402 301.658 270.578C301.372 270.274 301.195 269.633 301.181 269.222C301.13 268.363 301.571 267.747 301.767 266.914C301.975 266.033 302.188 265.172 302.322 264.272C303.414 257.239 301.041 250.11 295.966 245.172C291.855 241.156 286.328 238.961 280.61 239.075L280.561 239.076C279.719 239.092 277.856 239.149 277.137 239.463L277.072 239.577C277.35 239.958 277.977 240.517 278.335 240.873L280.452 243.012L288.499 251.148C289.487 252.142 290.753 253.306 291.594 254.382C293.063 256.258 290.106 258.567 288.937 259.744L284.536 264.175L280.052 268.724C279.195 269.592 278.384 270.489 277.424 271.254C276.645 271.874 275.433 271.896 274.641 271.264C273.376 270.159 272.193 268.885 271.004 267.679L263.761 260.355C262.768 259.351 260.937 257.391 259.925 256.525Z" fill="#BAAB9A"/>
<path d="M233.796 254.629C234.593 254.566 235.627 254.597 236.446 254.596L241.059 254.596L245.638 254.596C246.739 254.594 248.696 254.465 249.763 254.938C250.122 255.098 250.792 256.046 250.85 256.481C250.945 257.204 250.915 258.064 250.916 258.82L250.916 263.227L250.915 267.213C250.917 268.979 251.194 271.033 248.922 271.497C246.561 271.668 244.102 271.535 241.73 271.535C239.297 271.535 236.755 271.661 234.335 271.52C233.92 271.495 233.425 271.427 233.036 271.275C232.539 271.081 232.064 270.378 231.886 269.888C231.662 269.271 231.698 258.173 231.791 256.89C231.818 256.526 231.871 256.233 232.043 255.905C232.424 255.181 233.056 254.857 233.796 254.629ZM246.081 266.715C246.164 266.229 246.153 264.071 246.135 263.45C246.1 262.284 246.194 260.52 246.102 259.402C244.62 259.482 242.844 259.437 241.343 259.437C239.839 259.438 238.079 259.479 236.592 259.404C236.514 260.258 236.471 266.099 236.688 266.608C237.361 266.76 238.773 266.677 239.519 266.697C241.639 266.753 243.977 266.61 246.081 266.715Z" fill="#BAAB9A"/>
<path d="M207.465 254.633C209.2 254.497 212.597 254.6 214.436 254.6L219.345 254.6C220.401 254.601 222.436 254.465 223.461 254.96C223.804 255.126 224.469 256.076 224.52 256.503C224.607 257.236 224.581 258.086 224.582 258.847L224.583 263.169L224.581 267.186C224.583 268.958 224.869 271.035 222.587 271.502C220.571 271.647 217.168 271.542 215.067 271.543H210.532C209.671 271.542 208.79 271.581 207.932 271.52C207.505 271.489 207.036 271.42 206.645 271.242C206.137 271.012 205.693 270.331 205.529 269.813C205.329 269.182 205.361 257.986 205.465 256.702C205.487 256.42 205.564 256.197 205.7 255.948C206.114 255.188 206.675 254.876 207.465 254.633ZM219.748 266.72C219.832 266.202 219.815 264.07 219.799 263.42C219.771 262.263 219.854 260.52 219.769 259.408C218.273 259.486 216.481 259.443 214.966 259.442C213.486 259.441 211.715 259.487 210.254 259.41C210.183 260.285 210.131 266.095 210.355 266.612C210.996 266.761 212.507 266.689 213.228 266.702C215.368 266.741 217.614 266.635 219.748 266.72Z" fill="#BAAB9A"/>
<path d="M233.794 232.852C234.448 232.789 235.496 232.817 236.187 232.817L240.352 232.818L245.563 232.815C246.758 232.815 248.611 232.679 249.764 233.156C250.078 233.287 250.837 234.306 250.849 234.701C250.979 239.023 250.923 243.388 250.877 247.715C250.867 248.656 249.806 249.557 248.925 249.715C246.756 249.86 243.349 249.755 241.105 249.755H236.694C235.879 249.755 235.043 249.792 234.23 249.729C233.81 249.697 233.337 249.63 232.955 249.449C232.47 249.219 232.019 248.532 231.863 248.032C231.671 247.417 231.674 236.467 231.797 235.024C231.827 234.674 231.891 234.408 232.06 234.098C232.443 233.392 233.062 233.068 233.794 232.852ZM236.547 244.923C239.452 244.906 243.237 244.804 246.081 244.936C246.169 244.422 246.152 242.24 246.135 241.573C246.106 240.454 246.191 238.693 246.102 237.623C243.497 237.756 240.792 237.591 238.177 237.654C237.658 237.667 237.112 237.654 236.593 237.626C236.519 238.404 236.55 239.523 236.551 240.332L236.547 244.923Z" fill="#BAAB9A"/>
<path d="M207.455 232.859C208.255 232.787 209.474 232.823 210.322 232.823H215.269L219.785 232.823C221.493 232.82 224.026 232.431 224.495 234.754C224.666 235.605 224.589 236.724 224.583 237.611L224.567 241.614L224.588 245.326C224.599 247.038 224.825 249.317 222.589 249.721C217.895 250.033 212.673 249.585 207.93 249.739C207.018 249.768 205.577 249.036 205.526 248.034C205.306 243.725 205.456 239.313 205.46 234.989C205.462 233.81 206.571 233.118 207.455 232.859ZM219.745 244.942C219.827 244.438 219.814 242.31 219.797 241.676C219.764 240.5 219.854 238.761 219.766 237.631C217.153 237.754 214.456 237.603 211.836 237.66C211.315 237.671 210.772 237.66 210.251 237.633C210.181 238.508 210.129 244.316 210.352 244.833C210.994 244.984 212.504 244.911 213.225 244.924C215.364 244.963 217.612 244.857 219.745 244.942Z" fill="#BAAB9A"/>
<path d="M458.533 354.075H262.11V398.561C262.11 400.218 260.767 401.561 259.11 401.562C257.453 401.562 256.109 400.218 256.109 398.561V354.075H53.6973L256.115 0L458.533 354.075ZM64.041 348.073H448.189L256.115 12.0918L64.041 348.073Z" fill="#F2EADA"/>
<line x1="3.00062" y1="508.999" x2="508.999" y2="508.999" stroke="url(#paint0_linear_411_940)" stroke-width="6.00123" stroke-linecap="round"/>
<path d="M46.9797 476.391V436.125H56.3559L73.0375 463.506H68.0905L84.3119 436.125H93.6881L93.8032 476.391H83.334L83.219 452.059H85.0022L72.8649 472.422H67.8029L55.3205 452.059H57.5064V476.391H46.9797ZM130.221 477.196C127 477.196 124.028 476.678 121.305 475.643C118.582 474.607 116.204 473.15 114.172 471.271C112.178 469.354 110.625 467.129 109.513 464.598C108.401 462.067 107.845 459.287 107.845 456.258C107.845 453.228 108.401 450.448 109.513 447.917C110.625 445.386 112.178 443.181 114.172 441.302C116.204 439.384 118.582 437.908 121.305 436.873C124.028 435.837 127 435.319 130.221 435.319C133.48 435.319 136.452 435.837 139.137 436.873C141.86 437.908 144.218 439.384 146.212 441.302C148.206 443.181 149.759 445.386 150.871 447.917C152.022 450.448 152.597 453.228 152.597 456.258C152.597 459.287 152.022 462.087 150.871 464.656C149.759 467.187 148.206 469.392 146.212 471.271C144.218 473.15 141.86 474.607 139.137 475.643C136.452 476.678 133.48 477.196 130.221 477.196ZM130.221 467.762C131.755 467.762 133.174 467.494 134.478 466.957C135.82 466.42 136.97 465.653 137.929 464.656C138.926 463.621 139.693 462.393 140.23 460.975C140.805 459.556 141.093 457.983 141.093 456.258C141.093 454.494 140.805 452.921 140.23 451.541C139.693 450.122 138.926 448.914 137.929 447.917C136.97 446.881 135.82 446.095 134.478 445.558C133.174 445.022 131.755 444.753 130.221 444.753C128.687 444.753 127.249 445.022 125.907 445.558C124.603 446.095 123.452 446.881 122.455 447.917C121.497 448.914 120.73 450.122 120.154 451.541C119.618 452.921 119.349 454.494 119.349 456.258C119.349 457.983 119.618 459.556 120.154 460.975C120.73 462.393 121.497 463.621 122.455 464.656C123.452 465.653 124.603 466.42 125.907 466.957C127.249 467.494 128.687 467.762 130.221 467.762ZM166.616 476.391V436.125H185.656C190.104 436.125 194.016 436.949 197.39 438.598C200.765 440.247 203.392 442.567 205.271 445.558C207.188 448.55 208.147 452.116 208.147 456.258C208.147 460.361 207.188 463.927 205.271 466.957C203.392 469.948 200.765 472.268 197.39 473.917C194.016 475.566 190.104 476.391 185.656 476.391H166.616ZM178.005 467.302H185.195C187.496 467.302 189.49 466.88 191.178 466.037C192.903 465.155 194.246 463.889 195.204 462.24C196.163 460.553 196.642 458.559 196.642 456.258C196.642 453.918 196.163 451.924 195.204 450.275C194.246 448.626 192.903 447.38 191.178 446.536C189.49 445.654 187.496 445.213 185.195 445.213H178.005V467.302ZM240.772 477.196C234.828 477.196 230.188 475.566 226.852 472.307C223.515 469.047 221.847 464.426 221.847 458.444V436.125H233.237V458.098C233.237 461.55 233.908 464.023 235.25 465.519C236.631 467.014 238.51 467.762 240.887 467.762C243.265 467.762 245.125 467.014 246.467 465.519C247.809 464.023 248.48 461.55 248.48 458.098V436.125H259.697V458.444C259.697 464.426 258.029 469.047 254.693 472.307C251.356 475.566 246.716 477.196 240.772 477.196ZM302.387 436.125H313.776V476.391H302.387V436.125ZM286.856 476.391H275.466V436.125H286.856V476.391ZM303.192 460.687H286.05V451.253H303.192V460.687ZM325.031 476.391L342.806 436.125H354.023L371.855 476.391H360.005L346.085 441.704H350.571L336.651 476.391H325.031ZM334.753 468.568L337.686 460.169H357.359L360.293 468.568H334.753ZM400.874 477.196C394.93 477.196 390.29 475.566 386.954 472.307C383.617 469.047 381.949 464.426 381.949 458.444V436.125H393.339V458.098C393.339 461.55 394.01 464.023 395.352 465.519C396.732 467.014 398.611 467.762 400.989 467.762C403.367 467.762 405.227 467.014 406.569 465.519C407.911 464.023 408.582 461.55 408.582 458.098V436.125H419.799V458.444C419.799 464.426 418.131 469.047 414.794 472.307C411.458 475.566 406.818 477.196 400.874 477.196ZM449.718 477.196C446.42 477.196 443.237 476.793 440.17 475.988C437.14 475.144 434.667 474.071 432.749 472.767L436.488 464.368C438.291 465.519 440.361 466.478 442.701 467.245C445.078 467.973 447.437 468.337 449.776 468.337C451.348 468.337 452.614 468.203 453.572 467.935C454.531 467.628 455.221 467.245 455.643 466.784C456.103 466.286 456.333 465.711 456.333 465.059C456.333 464.138 455.912 463.41 455.068 462.873C454.224 462.336 453.131 461.895 451.789 461.55C450.447 461.205 448.951 460.86 447.302 460.514C445.692 460.169 444.062 459.728 442.413 459.191C440.802 458.654 439.326 457.964 437.984 457.121C436.642 456.239 435.549 455.107 434.705 453.727C433.861 452.308 433.439 450.525 433.439 448.377C433.439 445.961 434.091 443.775 435.395 441.82C436.737 439.864 438.732 438.291 441.378 437.103C444.024 435.914 447.322 435.319 451.271 435.319C453.918 435.319 456.506 435.626 459.037 436.24C461.606 436.815 463.888 437.678 465.882 438.828L462.373 447.284C460.456 446.249 458.558 445.482 456.679 444.983C454.8 444.446 452.978 444.178 451.214 444.178C449.642 444.178 448.376 444.35 447.417 444.696C446.459 445.002 445.768 445.424 445.347 445.961C444.925 446.498 444.714 447.112 444.714 447.802C444.714 448.684 445.117 449.393 445.922 449.93C446.766 450.429 447.858 450.851 449.201 451.196C450.581 451.502 452.077 451.828 453.687 452.174C455.336 452.519 456.966 452.96 458.577 453.497C460.226 453.995 461.721 454.685 463.064 455.567C464.406 456.411 465.48 457.542 466.285 458.961C467.129 460.342 467.55 462.087 467.55 464.196C467.55 466.535 466.879 468.702 465.537 470.696C464.233 472.652 462.258 474.224 459.612 475.413C457.005 476.602 453.707 477.196 449.718 477.196Z" fill="url(#paint1_linear_411_940)"/>
<defs>
<linearGradient id="paint0_linear_411_940" x1="0" y1="512.5" x2="512" y2="512.5" gradientUnits="userSpaceOnUse">
<stop stop-color="#F2EADA"/>
<stop offset="1" stop-color="#BAAB9A"/>
</linearGradient>
<linearGradient id="paint1_linear_411_940" x1="42.9531" y1="452.73" x2="474.953" y2="452.73" gradientUnits="userSpaceOnUse">
<stop stop-color="#928774"/>
<stop offset="1" stop-color="#CFCDC7"/>
</linearGradient>
</defs>
</svg>
